#!OML:ASF H:\Male1\Project 1\Capture day 1\Session 1\Male1.ASF
:FULLY-SPECIFIED
:DEGREES
503
root 10.2963 14.4678 1.00446 -549.965 -107.083 539.805
lowerback 9.81534 1.98642 -7.83983
upperback 8.22682 1.76557 -4.00984
thorax 3.02286 0.469553 0.0646052
lowerneck -7.59227 -2.93276 2.41354
upperneck 10.7901 -5.89281 11.4099
head 4.79358 -2.23184 2.74306
rclavicle -1.86858e-014 -1.74931e-014
rhumerus -47.3819 28.0433 -91.9583
rradius 90.8785
rwrist -24.1851
rhand -8.46358 4.9747
rfingers 7.12502
rthumb 17.4627 -24.2609
lclavicle -1.86858e-014 -1.74931e-014
lhumerus -10.7143 -12.1749 74.0651
lradius 29.7406
lwrist -0.521053
lhand -22.9058 4.43577
lfingers 7.12502
lthumb 3.53411 34.3862
rfemur -25.9514 22.9092 11.1769
rtibia 37.1987
rfoot -37.6656 -25.3551
rtoes 29.9679
lfemur -0.149137 -11.696 -29.719
ltibia 43.6866
lfoot -31.4902 14.4505
ltoes 2.43528
504
root 10.3001 14.4744 1.00635 -550.565 -106.864 540.265
lowerback 9.6264 1.84387 -8.14452
upperback 8.25652 1.58017 -3.9253
thorax 3.16328 0.355752 0.338213
lowerneck -7.48129 -2.7475 2.70691
upperneck 10.6904 -5.59401 10.9637
head 4.70832 -2.10592 2.57914
rclavicle 7.55382e-015 -3.33958e-014
rhumerus -46.896 28.4255 -91.8436
rradius 90.7444
rwrist -23.617
rhand -8.90875 5.05297
rfingers 7.12502
rthumb 17.0343 -24.2202
lclavicle 7.55382e-015 -3.33958e-014
lhumerus -11.0818 -12.134 74.6542
lradius 30.4221
lwrist 0.292579
lhand -23.1691 5.22529
lfingers 7.12502
lthumb 3.27978 35.1798
rfemur -26.0256 22.5295 11.2819
rtibia 37.309
rfoot -38.2037 -25.1147
rtoes 32.1025
lfemur 0.0995174 -11.5602 -29.9172
ltibia 43.4809
lfoot -31.2665 14.6201
ltoes 2.76901
505
root 10.3188 14.4666 1.02528 -557.504 -107.701 547.713
lowerback 9.35565 1.64642 -10.2406
upperback 8.18823 1.19589 -4.51772
thorax 3.27804 0.0709133 0.896729
lowerneck -7.47684 -2.62152 2.95228
upperneck 10.7801 -5.42135 10.652
head 4.71263 -2.02426 2.45449
rclavicle 3.97569e-014 -1.27222e-014
rhumerus -46.4989 28.5205 -91.7586
rradius 90.6789
rwrist -23.0644
rhand -9.47958 4.98932
rfingers 7.12502
rthumb 16.4848 -24.3303
lclavicle 3.97569e-014 -1.27222e-014
lhumerus -11.381 -12.3925 75.2988
lradius 30.9033
lwrist 0.850694
lhand -23.3914 5.57163
lfingers 7.12502
lthumb 3.06516 35.5293
rfemur -26.5476 20.4794 8.66344
rtibia 37.671
rfoot -37.3386 -24.1844
rtoes 34.0245
lfemur 0.151512 -11.957 -32.6651
ltibia 42.9926
lfoot -30.7315 15.0406
ltoes 2.98259
506
root 10.3377 14.4777 1.03227 -557.862 -107.163 547.855
lowerback 9.31498 1.61686 -10.2313
upperback 8.22675 1.164 -4.42336
thorax 3.34256 0.0484114 0.992949
lowerneck -7.3727 -2.42798 3.07374
upperneck 10.6088 -5.13933 10.5918
head 4.62614 -1.89693 2.43608
rclavicle -7.15625e-015 -2.38542e-014
rhumerus -46.064 28.5508 -91.666
rradius 90.6806
rwrist -22.6979
rhand -9.40328 4.99711
rfingers 7.12502
rthumb 16.5582 -24.3164
lclavicle -7.15625e-015 -2.38542e-014
lhumerus -11.52 -12.5358 75.9222
lradius 31.0989
lwrist 0.97481
lhand -23.0583 5.53291
lfingers 7.12502
lthumb 3.38683 35.4858
rfemur -26.7834 20.244 8.87339
rtibia 38.0619
rfoot -37.3968 -23.1631
rtoes 36.1443
lfemur 0.558666 -11.6911 -32.6892
ltibia 42.4519
lfoot -30.3908 15.3012
ltoes 3.31822
507
root 10.364 14.4949 1.04024 -557.936 -106.511 547.776
lowerback 9.31246 1.60985 -10.0345
upperback 8.21202 1.16616 -4.34889
thorax 3.32532 0.05796 0.963831
lowerneck -7.09051 -2.23174 3.14617
upperneck 10.3236 -4.845 10.6873
head 4.47965 -1.7697 2.4758
rclavicle -5.56597e-015 4.13472e-014
rhumerus -45.7967 28.3063 -91.6791
rradius 90.7725
rwrist -22.4517
rhand -9.46748 5.09518
rfingers 7.12502
rthumb 16.4964 -24.2235
lclavicle -5.56597e-015 4.13472e-014
lhumerus -11.6349 -12.7958 76.4603
lradius 31.1791
lwrist 0.737416
lhand -22.4052 5.61599
lfingers 7.12502
lthumb 4.01746 35.5579
rfemur -27.0693 19.7867 9.12007
rtibia 38.3597
rfoot -36.3822 -22.7017
rtoes 36.5351
lfemur 0.861433 -11.3994 -32.6036
ltibia 41.913
lfoot -30.0491 15.588
ltoes 3.58028
